<svg width="634" height="123" viewBox="0 0 634 123" fill="none" xmlns="http://www.w3.org/2000/svg">
<path d="M66.636 83.32C65.8253 83.32 65.164 83.0853 64.652 82.616C64.1827 82.104 63.948 81.4427 63.948 80.632V42.36H50.188C49.42 42.36 48.8227 42.168 48.396 41.784C47.9693 41.4 47.756 40.8453 47.756 40.12C47.756 39.3947 47.9693 38.84 48.396 38.456C48.8227 38.072 49.42 37.88 50.188 37.88H83.02C83.788 37.88 84.3853 38.072 84.812 38.456C85.2387 38.84 85.452 39.3947 85.452 40.12C85.452 40.8453 85.2387 41.4 84.812 41.784C84.3853 42.168 83.788 42.36 83.02 42.36H69.26V80.632C69.26 81.4427 69.0253 82.104 68.556 82.616C68.0867 83.0853 67.4467 83.32 66.636 83.32ZM106.294 51.064C109.963 51.064 112.737 52.1093 114.614 54.2C116.491 56.248 117.43 59.32 117.43 63.416V80.76C117.43 81.5707 117.195 82.2107 116.726 82.68C116.257 83.1067 115.638 83.32 114.87 83.32C114.059 83.32 113.419 83.1067 112.95 82.68C112.481 82.2107 112.246 81.5707 112.246 80.76V63.544C112.246 60.7707 111.67 58.7227 110.518 57.4C109.409 56.0773 107.617 55.416 105.142 55.416C102.283 55.416 100.001 56.2907 98.294 58.04C96.5873 59.7893 95.734 62.1573 95.734 65.144V80.76C95.734 81.5707 95.4993 82.2107 95.03 82.68C94.6033 83.1067 93.9847 83.32 93.174 83.32C92.3633 83.32 91.7233 83.1067 91.254 82.68C90.7847 82.2107 90.55 81.5707 90.55 80.76V40.056C90.55 39.3307 90.7847 38.7333 91.254 38.264C91.766 37.7947 92.406 37.56 93.174 37.56C93.9847 37.56 94.6033 37.7947 95.03 38.264C95.4993 38.6907 95.734 39.288 95.734 40.056V56.824C96.758 54.9467 98.1873 53.5173 100.022 52.536C101.857 51.5547 103.947 51.064 106.294 51.064ZM151.053 75.768C151.522 75.768 151.928 75.96 152.269 76.344C152.61 76.728 152.781 77.2187 152.781 77.816C152.781 78.8827 152.034 79.864 150.541 80.76C149.005 81.656 147.384 82.3387 145.677 82.808C143.97 83.2347 142.306 83.448 140.685 83.448C135.864 83.448 132.045 82.0187 129.229 79.16C126.456 76.3013 125.069 72.3547 125.069 67.32C125.069 64.12 125.688 61.304 126.925 58.872C128.162 56.3973 129.89 54.4773 132.109 53.112C134.37 51.7467 136.93 51.064 139.789 51.064C143.842 51.064 147.064 52.3867 149.453 55.032C151.842 57.6773 153.037 61.2613 153.037 65.784C153.037 66.6373 152.866 67.256 152.525 67.64C152.184 68.024 151.629 68.216 150.861 68.216H130.253C130.637 75.5547 134.114 79.224 140.685 79.224C142.349 79.224 143.778 79.0107 144.973 78.584C146.168 78.1147 147.448 77.496 148.813 76.728C149.922 76.088 150.669 75.768 151.053 75.768ZM139.853 55.096C137.122 55.096 134.925 55.9493 133.261 57.656C131.64 59.3627 130.68 61.7733 130.381 64.888H148.493C148.408 61.7307 147.618 59.32 146.125 57.656C144.632 55.9493 142.541 55.096 139.853 55.096ZM218.007 37.56C218.818 37.56 219.436 37.816 219.863 38.328C220.332 38.7973 220.567 39.4373 220.567 40.248V80.76C220.567 81.528 220.354 82.1467 219.927 82.616C219.5 83.0853 218.903 83.32 218.135 83.32C217.367 83.32 216.791 83.0853 216.407 82.616C216.023 82.1467 215.831 81.528 215.831 80.76V48.056L201.943 74.68C201.346 75.9173 200.471 76.536 199.319 76.536C198.21 76.536 197.335 75.9173 196.695 74.68L182.743 48.376V80.76C182.743 81.528 182.53 82.1467 182.103 82.616C181.719 83.0853 181.143 83.32 180.375 83.32C179.607 83.32 179.01 83.0853 178.583 82.616C178.156 82.1467 177.943 81.528 177.943 80.76V40.248C177.943 39.4373 178.178 38.7973 178.647 38.328C179.116 37.816 179.756 37.56 180.567 37.56C181.634 37.56 182.487 38.1787 183.127 39.416L199.383 70.584L215.447 39.416C215.788 38.7333 216.151 38.264 216.535 38.008C216.962 37.7093 217.452 37.56 218.007 37.56ZM243.724 51.064C251.532 51.064 255.436 55.16 255.436 63.352V80.76C255.436 81.528 255.201 82.1467 254.732 82.616C254.305 83.0853 253.708 83.32 252.94 83.32C252.172 83.32 251.553 83.0853 251.084 82.616C250.614 82.1467 250.38 81.528 250.38 80.76V77.688C249.569 79.5227 248.332 80.952 246.668 81.976C245.004 82.9573 243.084 83.448 240.908 83.448C238.902 83.448 237.046 83.0427 235.34 82.232C233.676 81.4213 232.353 80.2907 231.372 78.84C230.39 77.3893 229.9 75.7893 229.9 74.04C229.9 71.6933 230.497 69.88 231.692 68.6C232.886 67.2773 234.849 66.3387 237.58 65.784C240.31 65.1867 244.108 64.888 248.972 64.888H250.38V62.776C250.38 60.216 249.846 58.3387 248.78 57.144C247.756 55.9493 246.07 55.352 243.724 55.352C240.822 55.352 237.878 56.1413 234.892 57.72C233.74 58.4453 232.929 58.808 232.46 58.808C231.948 58.808 231.521 58.616 231.18 58.232C230.838 57.848 230.668 57.3573 230.668 56.76C230.668 56.1627 230.838 55.6507 231.18 55.224C231.564 54.7547 232.161 54.2853 232.972 53.816C234.465 52.9627 236.15 52.3013 238.028 51.832C239.948 51.32 241.846 51.064 243.724 51.064ZM241.612 79.352C244.172 79.352 246.262 78.4987 247.884 76.792C249.548 75.0427 250.38 72.8027 250.38 70.072V68.216H249.228C245.473 68.216 242.614 68.3867 240.652 68.728C238.689 69.0267 237.281 69.56 236.428 70.328C235.617 71.0533 235.212 72.1413 235.212 73.592C235.212 75.256 235.809 76.6427 237.004 77.752C238.241 78.8187 239.777 79.352 241.612 79.352ZM275.421 83.448C273.458 83.448 271.581 83.2133 269.789 82.744C268.04 82.2747 266.482 81.6133 265.117 80.76C264.349 80.248 263.794 79.7787 263.453 79.352C263.154 78.8827 263.005 78.328 263.005 77.688C263.005 77.1333 263.154 76.6853 263.453 76.344C263.794 75.96 264.221 75.768 264.733 75.768C265.245 75.768 265.992 76.088 266.973 76.728C268.253 77.496 269.512 78.1147 270.749 78.584C272.029 79.0107 273.608 79.224 275.485 79.224C277.789 79.224 279.581 78.8187 280.861 78.008C282.141 77.1973 282.781 76.024 282.781 74.488C282.781 73.5493 282.546 72.8027 282.077 72.248C281.608 71.6507 280.797 71.1387 279.645 70.712C278.493 70.2427 276.808 69.7733 274.589 69.304C270.834 68.4933 268.146 67.4053 266.525 66.04C264.904 64.6747 264.093 62.8187 264.093 60.472C264.093 58.6373 264.605 57.016 265.629 55.608C266.653 54.2 268.061 53.0907 269.853 52.28C271.688 51.4693 273.757 51.064 276.061 51.064C277.725 51.064 279.325 51.2987 280.861 51.768C282.44 52.1947 283.826 52.8133 285.021 53.624C286.472 54.648 287.197 55.7147 287.197 56.824C287.197 57.3787 287.026 57.848 286.685 58.232C286.344 58.616 285.938 58.808 285.469 58.808C284.957 58.808 284.189 58.4453 283.165 57.72C281.97 56.952 280.84 56.3547 279.773 55.928C278.706 55.5013 277.384 55.288 275.805 55.288C273.8 55.288 272.178 55.736 270.941 56.632C269.746 57.528 269.149 58.7227 269.149 60.216C269.149 61.1547 269.362 61.9227 269.789 62.52C270.258 63.0747 271.005 63.5867 272.029 64.056C273.096 64.4827 274.61 64.9093 276.573 65.336C279.474 65.976 281.714 66.68 283.293 67.448C284.914 68.216 286.066 69.1547 286.749 70.264C287.432 71.3733 287.773 72.7813 287.773 74.488C287.773 77.176 286.642 79.352 284.381 81.016C282.12 82.6373 279.133 83.448 275.421 83.448ZM311.419 51.064C315.088 51.064 317.862 52.1093 319.739 54.2C321.616 56.248 322.555 59.32 322.555 63.416V80.76C322.555 81.5707 322.32 82.2107 321.851 82.68C321.382 83.1067 320.763 83.32 319.995 83.32C319.184 83.32 318.544 83.1067 318.075 82.68C317.606 82.2107 317.371 81.5707 317.371 80.76V63.544C317.371 60.7707 316.795 58.7227 315.643 57.4C314.534 56.0773 312.742 55.416 310.267 55.416C307.408 55.416 305.126 56.2907 303.419 58.04C301.712 59.7893 300.859 62.1573 300.859 65.144V80.76C300.859 81.5707 300.624 82.2107 300.155 82.68C299.728 83.1067 299.11 83.32 298.299 83.32C297.488 83.32 296.848 83.1067 296.379 82.68C295.91 82.2107 295.675 81.5707 295.675 80.76V40.056C295.675 39.3307 295.91 38.7333 296.379 38.264C296.891 37.7947 297.531 37.56 298.299 37.56C299.11 37.56 299.728 37.7947 300.155 38.264C300.624 38.6907 300.859 39.288 300.859 40.056V56.824C301.883 54.9467 303.312 53.5173 305.147 52.536C306.982 51.5547 309.072 51.064 311.419 51.064ZM344.786 51.064C352.594 51.064 356.498 55.16 356.498 63.352V80.76C356.498 81.528 356.263 82.1467 355.794 82.616C355.367 83.0853 354.77 83.32 354.002 83.32C353.234 83.32 352.615 83.0853 352.146 82.616C351.677 82.1467 351.442 81.528 351.442 80.76V77.688C350.631 79.5227 349.394 80.952 347.73 81.976C346.066 82.9573 344.146 83.448 341.97 83.448C339.965 83.448 338.109 83.0427 336.402 82.232C334.738 81.4213 333.415 80.2907 332.434 78.84C331.453 77.3893 330.962 75.7893 330.962 74.04C330.962 71.6933 331.559 69.88 332.754 68.6C333.949 67.2773 335.911 66.3387 338.642 65.784C341.373 65.1867 345.17 64.888 350.034 64.888H351.442V62.776C351.442 60.216 350.909 58.3387 349.842 57.144C348.818 55.9493 347.133 55.352 344.786 55.352C341.885 55.352 338.941 56.1413 335.954 57.72C334.802 58.4453 333.991 58.808 333.522 58.808C333.01 58.808 332.583 58.616 332.242 58.232C331.901 57.848 331.73 57.3573 331.73 56.76C331.73 56.1627 331.901 55.6507 332.242 55.224C332.626 54.7547 333.223 54.2853 334.034 53.816C335.527 52.9627 337.213 52.3013 339.09 51.832C341.01 51.32 342.909 51.064 344.786 51.064ZM342.674 79.352C345.234 79.352 347.325 78.4987 348.946 76.792C350.61 75.0427 351.442 72.8027 351.442 70.072V68.216H350.29C346.535 68.216 343.677 68.3867 341.714 68.728C339.751 69.0267 338.343 69.56 337.49 70.328C336.679 71.0533 336.274 72.1413 336.274 73.592C336.274 75.256 336.871 76.6427 338.066 77.752C339.303 78.8187 340.839 79.352 342.674 79.352ZM381.412 51.192C383.204 51.064 384.1 51.7893 384.1 53.368C384.1 54.0507 383.908 54.6053 383.524 55.032C383.14 55.416 382.478 55.6507 381.54 55.736L379.62 55.928C376.761 56.184 374.628 57.208 373.22 59C371.854 60.7493 371.172 62.8187 371.172 65.208V80.76C371.172 81.6133 370.937 82.2533 370.468 82.68C369.998 83.1067 369.38 83.32 368.612 83.32C367.844 83.32 367.204 83.1067 366.692 82.68C366.222 82.2107 365.988 81.5707 365.988 80.76V53.752C365.988 52.9413 366.244 52.3227 366.756 51.896C367.268 51.4267 367.886 51.192 368.612 51.192C369.294 51.192 369.87 51.4267 370.34 51.896C370.809 52.3227 371.044 52.92 371.044 53.688V57.272C371.94 55.3947 373.198 53.9653 374.82 52.984C376.484 52.0027 378.382 51.4267 380.516 51.256L381.412 51.192ZM391.174 83.32C390.406 83.32 389.766 83.1067 389.254 82.68C388.785 82.2107 388.55 81.5707 388.55 80.76V53.752C388.55 52.9413 388.785 52.3227 389.254 51.896C389.766 51.4267 390.406 51.192 391.174 51.192C391.942 51.192 392.561 51.4267 393.03 51.896C393.499 52.3227 393.734 52.9413 393.734 53.752V80.76C393.734 81.6133 393.499 82.2533 393.03 82.68C392.561 83.1067 391.942 83.32 391.174 83.32ZM391.174 44.472C390.15 44.472 389.318 44.1733 388.678 43.576C388.038 42.9787 387.718 42.1893 387.718 41.208C387.718 40.2693 388.038 39.5013 388.678 38.904C389.318 38.3067 390.15 38.008 391.174 38.008C392.198 38.008 393.03 38.3067 393.67 38.904C394.31 39.5013 394.63 40.2693 394.63 41.208C394.63 42.1893 394.31 42.9787 393.67 43.576C393.03 44.1733 392.198 44.472 391.174 44.472ZM428.321 78.904C429.004 79.544 429.345 80.2267 429.345 80.952C429.345 81.592 429.11 82.1467 428.641 82.616C428.214 83.0853 427.681 83.32 427.041 83.32C426.486 83.32 425.91 83.064 425.313 82.552L408.609 68.152V80.76C408.609 81.5707 408.353 82.2107 407.841 82.68C407.372 83.1067 406.774 83.32 406.049 83.32C405.281 83.32 404.641 83.1067 404.129 82.68C403.66 82.2107 403.425 81.5707 403.425 80.76V40.12C403.425 39.3093 403.66 38.6907 404.129 38.264C404.641 37.7947 405.281 37.56 406.049 37.56C406.774 37.56 407.372 37.7947 407.841 38.264C408.353 38.6907 408.609 39.3093 408.609 40.12V66.104L423.905 52.088C424.417 51.576 424.993 51.32 425.633 51.32C426.273 51.32 426.828 51.5547 427.297 52.024C427.766 52.4933 428.001 53.048 428.001 53.688C428.001 54.4133 427.702 55.0533 427.105 55.608L414.497 66.872L428.321 78.904ZM438.049 83.32C437.281 83.32 436.641 83.1067 436.129 82.68C435.66 82.2107 435.425 81.5707 435.425 80.76V53.752C435.425 52.9413 435.66 52.3227 436.129 51.896C436.641 51.4267 437.281 51.192 438.049 51.192C438.817 51.192 439.436 51.4267 439.905 51.896C440.374 52.3227 440.609 52.9413 440.609 53.752V80.76C440.609 81.6133 440.374 82.2533 439.905 82.68C439.436 83.1067 438.817 83.32 438.049 83.32ZM438.049 44.472C437.025 44.472 436.193 44.1733 435.553 43.576C434.913 42.9787 434.593 42.1893 434.593 41.208C434.593 40.2693 434.913 39.5013 435.553 38.904C436.193 38.3067 437.025 38.008 438.049 38.008C439.073 38.008 439.905 38.3067 440.545 38.904C441.185 39.5013 441.505 40.2693 441.505 41.208C441.505 42.1893 441.185 42.9787 440.545 43.576C439.905 44.1733 439.073 44.472 438.049 44.472Z" fill="#11184A"/>
<path d="M502.128 37.56C503.365 37.56 504.347 37.944 505.072 38.712C505.797 39.4373 506.16 40.4187 506.16 41.656V79.224C506.16 80.4613 505.776 81.464 505.008 82.232C504.283 83 503.323 83.384 502.128 83.384C500.891 83.384 499.909 83 499.184 82.232C498.459 81.464 498.096 80.4613 498.096 79.224V63.416H474.992V79.224C474.992 80.4613 474.608 81.464 473.84 82.232C473.115 83 472.133 83.384 470.896 83.384C469.701 83.384 468.72 83 467.952 82.232C467.227 81.464 466.864 80.4613 466.864 79.224V41.656C466.864 40.4187 467.227 39.4373 467.952 38.712C468.677 37.944 469.659 37.56 470.896 37.56C472.133 37.56 473.115 37.944 473.84 38.712C474.608 39.4373 474.992 40.4187 474.992 41.656V56.76H498.096V41.656C498.096 40.4187 498.459 39.4373 499.184 38.712C499.909 37.944 500.891 37.56 502.128 37.56ZM539.864 51.064C541.101 51.064 542.083 51.4053 542.808 52.088C543.533 52.7707 543.896 53.688 543.896 54.84V79.672C543.896 80.7813 543.512 81.6773 542.744 82.36C542.019 83.0427 541.059 83.384 539.864 83.384C538.712 83.384 537.795 83.064 537.112 82.424C536.429 81.784 536.088 80.9093 536.088 79.8V78.2C535.107 79.9067 533.784 81.2293 532.12 82.168C530.456 83.064 528.579 83.512 526.488 83.512C518.808 83.512 514.968 79.2027 514.968 70.584V54.84C514.968 53.688 515.331 52.7707 516.056 52.088C516.781 51.4053 517.741 51.064 518.936 51.064C520.173 51.064 521.155 51.4053 521.88 52.088C522.605 52.7707 522.968 53.688 522.968 54.84V70.648C522.968 72.8667 523.416 74.5093 524.312 75.576C525.208 76.6427 526.616 77.176 528.536 77.176C530.755 77.176 532.525 76.4507 533.848 75C535.213 73.5067 535.896 71.544 535.896 69.112V54.84C535.896 53.688 536.259 52.7707 536.984 52.088C537.709 51.4053 538.669 51.064 539.864 51.064ZM570.207 50.936C572.937 50.936 575.348 51.5973 577.439 52.92C579.529 54.2427 581.151 56.12 582.303 58.552C583.497 60.984 584.095 63.8213 584.095 67.064C584.095 70.3067 583.497 73.1867 582.303 75.704C581.151 78.1787 579.508 80.0987 577.375 81.464C575.284 82.8293 572.895 83.512 570.207 83.512C567.945 83.512 565.919 83.0213 564.127 82.04C562.377 81.0587 561.033 79.6933 560.095 77.944V79.544C560.095 80.696 559.732 81.6133 559.007 82.296C558.281 82.9787 557.321 83.32 556.127 83.32C554.932 83.32 553.972 82.9787 553.247 82.296C552.564 81.6133 552.223 80.696 552.223 79.544V41.272C552.223 40.1627 552.585 39.2667 553.311 38.584C554.079 37.9013 555.06 37.56 556.255 37.56C557.449 37.56 558.409 37.88 559.135 38.52C559.86 39.16 560.223 40.0347 560.223 41.144V56.248C561.161 54.5413 562.505 53.24 564.255 52.344C566.004 51.4053 567.988 50.936 570.207 50.936ZM568.095 77.304C570.612 77.304 572.575 76.408 573.983 74.616C575.391 72.824 576.095 70.3067 576.095 67.064C576.095 63.864 575.391 61.4107 573.983 59.704C572.617 57.9973 570.655 57.144 568.095 57.144C565.535 57.144 563.551 58.0187 562.143 59.768C560.777 61.4747 560.095 63.9493 560.095 67.192C560.095 70.4347 560.777 72.9307 562.143 74.68C563.551 76.4293 565.535 77.304 568.095 77.304Z" fill="#D8792E"/>
</svg>
